<svg
  xmlns="http://www.w3.org/2000/svg"
  width="20.9898mm"
  height="21.0682mm"
  version="1.0"
  viewBox="0 0 157.87 158.46"
  shape-rendering="geometricPrecision"
  text-rendering="geometricPrecision"
  image-rendering="optimizeQuality"
  fill-rule="evenodd"
  clip-rule="evenodd">
  <defs>
    <style>
      .fil2 { fill: #1ea39a; }
      .fil8 { fill: #49b3ac; }
      .fil7 { fill: #ccd937; }
      .fil9 { fill: #f50357; }
    </style>
  </defs>
  <g>
    <path fill="#c6c7c7" fill-opacity=".501961" d="M90.79 49.26h43.57v19.59H90.79z"/>
    <path d="M114.41 82.68c0-4.14-.71-8.12-2.02-11.81-.2-.56-.41-1.12-.64-1.67-3.82-9.28-11.46-16.57-20.97-19.93v85.65H67.16V47.26H23.59V23.64h110.76v45.23c10.07-3.56 18.05-11.54 21.61-21.61 1-2.83 1.65-5.83 1.9-8.93V.01H35.4c-4.14 0-8.12.71-11.81 2.02C13.52 5.59 5.54 13.57 1.98 23.64.81 26.95.12 30.48-.01 34.16v36.73h43.55v52.23c0 4.14.71 8.12 2.02 11.81 3.56 10.07 11.54 18.05 21.61 21.61 3.01 1.06 6.2 1.73 9.52 1.94h37.72V82.7z" fill="#f6b3b6"/>
    <path class="fil2" d="M0 47.24h23.6v23.62H0z"/>
    <path fill="#c0c631" d="M134.27 0h23.6v23.62h-23.6z"/>
    <path fill="#c32a5a" d="M90.81 134.84h23.6v23.62h-23.6z"/>
    <path d="M1.99 23.62H23.6V2.01C13.53 5.57 5.55 13.55 1.99 23.62z" fill="#89bf49"/>
    <path d="M67.17 134.91H45.56c3.56 10.07 11.54 18.05 21.61 21.61v-21.61z" fill="#880e4f"/>
    <path class="fil7" d="M23.6 23.62h110.67V0H35.41c-4.14 0-8.12.71-11.81 2.02v21.61zM134.36 23.62v45.23c10.07-3.56 18.05-11.54 21.61-21.61 1-2.83 1.65-5.83 1.9-8.93V23.62h-23.51z"/>
    <path class="fil8" d="M23.6 47.24V23.62H1.99C.82 26.93.13 30.46 0 34.14v13.11h23.6zM43.55 47.24H23.6v23.62h19.95V47.24zM67.15 70.87h-23.6v52.23c0 4.14.71 8.12 2.02 11.81h21.61V70.87h-.02z"/>
    <path class="fil9" d="M90.79 134.91H67.17v21.61c3.01 1.06 6.2 1.73 9.52 1.94h14.1v-23.55zM90.79 49.26v85.65h.02v-.07h23.6V82.68c0-4.14-.71-8.12-2.02-11.81-.2-.56-.41-1.12-.64-1.67-3.82-9.28-11.46-16.57-20.97-19.93z"/>
    <path class="fil2" d="M67.17 70.87V47.25H43.55v23.62h23.62z"/>
  </g>
</svg>
