<svg xmlns="http://www.w3.org/2000/svg" width="21.0681mm" height="21.0681mm" version="1.0" viewBox="0 0 8570.8 8570.8" shape-rendering="geometricPrecision" text-rendering="geometricPrecision" image-rendering="optimizeQuality" fill-rule="evenodd" clip-rule="evenodd">
  <defs>
    <style>
      .fil4 { fill: #1ea39a; }
      .fil1 { fill: #ccd937; }
    </style>
  </defs>
  <g>
    <path d="M5630.72 2856.93h893.97c215 0 422.52-33.64 617.67-95.89V1428.48H4285.43c574.5 203.04 1036.56 644.23 1267.47 1204.98 13.75 33.32 26.65 67.04 38.73 101.22 14.2 40.19 27.26 80.96 39.09 122.25z" fill="#cfd8db" fill-opacity=".501961"/>
    <path class="fil1" d="M8474.84 1428.49c4.19-13.26 8.26-26.56 12.2-39.91 54.39-183.39 83.76-377.32 83.76-577.76V0H2046.11C1137.9 0 363.04 599.81 97.79 1422.83l-1.83 5.65H8474.83zM7142.36 2761.05l23.72-7.77c619.62-206.17 1110.03-701.92 1308.76-1324.79H7142.36v1332.56z"/>
    <path d="M0 2856.93h2856.93v3667.76c0 919.6 611.4 1698.33 1428.49 1950.15V1428.49H95.96C33.72 1623.6-.01 1831.15-.01 2046.12v810.82z" fill="#49b3ac"/>
    <path d="M5713.87 8570.8V7142.31H4285.42v1332.52l6.39 2.07c193.24 60.94 398.6 93.89 611.24 93.89h810.82z" fill="#d71b60"/>
    <path class="fil4" d="M2856.94 1428.47h1428.47v1428.47H2856.94zM1428.49 1428.49H95.97C33.73 1623.6 0 1831.15 0 2046.12v810.82h1428.49V1428.49z"/>
    <path d="M1428.49 1428.49V95.85C799.6 296.49 300.23 794.68 97.8 1422.84l-1.83 5.65h1332.52z" fill="#68b4ac"/>
    <path d="M7142.36 0v1428.49h1332.48c4.19-13.26 8.26-26.56 12.2-39.91 54.39-183.39 83.76-377.32 83.76-577.76V0H7142.35z" fill="#c0c631"/>
    <path d="M3972.22 7142.32H2952.26c202.15 637.64 707.33 1139.61 1333.17 1332.52V7142.32h-313.21z" fill="#37808c"/>
    <path d="M4285.38 1428.45v5718.3h1.42v-4.43h1426.7V3448.69c0-250.35-42.96-490.7-121.92-714.04-12.04-34.13-24.94-67.86-38.69-101.17-230.95-560.75-692.97-1001.94-1267.51-1205.02z" fill="#f50357"/>
  </g>
</svg>
