<svg width="604" height="604" xmlns="http://www.w3.org/2000/svg">
 <g>
  <rect fill="#ffffff" fill-opacity="0" id="canvas_background" height="606" width="606" y="-1" x="-1"/>
  <g display="none" overflow="visible" y="0" x="0" height="100%" width="100%" id="canvasGrid">
   <rect fill="url(#gridpattern)" stroke-width="0" y="1" x="1" height="600" width="800"/>
  </g>
 </g>
 <g>
  <ellipse stroke="#37474f" ry="300" rx="300" id="svg_6" cy="302" cx="302" stroke-width="3.5" fill="#37474f"/>
  <g stroke="null" id="svg_5">
   <path stroke="null" id="svg_4" fill="#f5f5f5" d="m436.10547,138.59444l-111.56664,111.56664l37.18888,37.18888l130.16108,-130.16108l0,-18.59444m-185.9444,176.64718a9.29722,9.29722 0 0 1 -9.29722,-9.29722a9.29722,9.29722 0 0 1 9.29722,-9.29722a9.29722,9.29722 0 0 1 9.29722,9.29722a9.29722,9.29722 0 0 1 -9.29722,9.29722m-111.56664,139.4583a37.18888,37.18888 0 0 1 -37.18888,-37.18888c0,-20.63983 16.735,-37.18888 37.18888,-37.18888a37.18888,37.18888 0 0 1 37.18888,37.18888c0,20.63983 -16.735,37.18888 -37.18888,37.18888m0,-223.13328a37.18888,37.18888 0 0 1 -37.18888,-37.18888c0,-20.63983 16.735,-37.18888 37.18888,-37.18888a37.18888,37.18888 0 0 1 37.18888,37.18888c0,20.63983 -16.735,37.18888 -37.18888,37.18888m67.68376,-6.694c4.27672,-9.29722 6.694,-19.52416 6.694,-30.49488a74.37776,74.37776 0 0 0 -74.37776,-74.37776a74.37776,74.37776 0 0 0 -74.37776,74.37776a74.37776,74.37776 0 0 0 74.37776,74.37776c10.97072,0 21.19766,-2.41728 30.49488,-6.694l43.88288,43.88288l-43.88288,43.88288c-9.29722,-4.27672 -19.52416,-6.694 -30.49488,-6.694a74.37776,74.37776 0 0 0 -74.37776,74.37776a74.37776,74.37776 0 0 0 74.37776,74.37776a74.37776,74.37776 0 0 0 74.37776,-74.37776c0,-10.97072 -2.41728,-21.19766 -6.694,-30.49488l43.88288,-43.88288l130.16108,130.16108l55.78332,0l0,-18.59444l-229.82727,-229.82727z"/>
  </g>
 </g>
</svg>
