<svg width="100" height="100" xmlns="http://www.w3.org/2000/svg">
 <g>
  <rect fill="none" height="100" width="100"/>
 </g>
 <g>
  <ellipse stroke="#000" ry="50" rx="50" cy="50" cx="50" stroke-opacity="null" stroke-width="0" fill="#37474f"/>
  <g stroke="null">
   <path stroke="null" fill="#f5f5f5" d="m67.43469,27.58398l-14.94402,14.94402l4.98134,4.98134l17.43468,-17.43468l0,-2.49067m-24.90669,23.66137a1.24534,1.24534 0 0 1 -1.24533,-1.24534a1.24534,1.24534 0 0 1 1.24533,-1.24533a1.24534,1.24534 0 0 1 1.24534,1.24533a1.24534,1.24534 0 0 1 -1.24534,1.24534m-14.94402,18.68001a4.98134,4.98134 0 0 1 -4.98134,-4.98134c0,-2.76465 2.24159,-4.98134 4.98134,-4.98134a4.98134,4.98134 0 0 1 4.98134,4.98134c0,2.76465 -2.24161,4.98134 -4.98134,4.98134m0,-29.88803a4.98134,4.98134 0 0 1 -4.98134,-4.98134c0,-2.76465 2.24159,-4.98134 4.98134,-4.98134a4.98134,4.98134 0 0 1 4.98134,4.98134c0,2.76465 -2.24161,4.98134 -4.98134,4.98134m9.06604,-0.89664c0.57286,-1.24534 0.89664,-2.6152 0.89664,-4.0847a9.96268,9.96268 0 0 0 -9.96268,-9.96268a9.96268,9.96268 0 0 0 -9.96268,9.96268a9.96268,9.96268 0 0 0 9.96268,9.96268c1.4695,0 2.83935,-0.32378 4.0847,-0.89664l5.87798,5.87798l-5.87798,5.87798c-1.24534,-0.57286 -2.6152,-0.89664 -4.0847,-0.89664a9.96268,9.96268 0 0 0 -9.96268,9.96268a9.96268,9.96268 0 0 0 9.96268,9.96268a9.96268,9.96268 0 0 0 9.96268,-9.96268c0,-1.4695 -0.32378,-2.83935 -0.89664,-4.0847l5.87798,-5.87798l17.43468,17.43468l7.47201,0l0,-2.49067l-30.78467,-30.78467z"/>
  </g>
 </g>
</svg>
