<svg width="64" height="64" xmlns="http://www.w3.org/2000/svg">

 <g>
  <title>background</title>
  <rect fill="none" id="canvas_background" height="402" width="582" y="-1" x="-1"/>
 </g>
 <g>
  <title>Layer 1</title>
  <circle id="svg_2" r="32" fill="#0d47a1" cy="32.100376" cx="32.200752"/>
  <path opacity="0.2" id="svg_5" fill="#231F20" d="m44,38c-6.188,0 -8.187,-2.868 -8.187,-2.868l-19.813,-21.132c0,19.062 19.525,24.06 19.525,30.259c0,1.896 0.476,3.467 1.035,4.667c1.169,2.969 4.056,5.074 7.44,5.074c4.418,0 8,-3.582 8,-8s-3.582,-8 -8,-8zm0,12c-2.206,0 -4,-1.794 -4,-4s1.794,-4 4,-4s4,1.794 4,4s-1.794,4 -4,4z"/>
  <path id="svg_8" fill="#ffffff" d="m44,36c-6.188,0 -8.187,-2.868 -8.187,-2.868l-19.813,-21.132c0,19.062 19.525,24.06 19.525,30.259c0,1.896 0.476,3.467 1.035,4.667c1.169,2.969 4.056,5.074 7.44,5.074c4.418,0 8,-3.582 8,-8s-3.582,-8 -8,-8zm0,12c-2.206,0 -4,-1.794 -4,-4s1.794,-4 4,-4s4,1.794 4,4s-1.794,4 -4,4z"/>
  <path opacity="0.2" id="svg_10" fill="#231F20" d="m28.187,35.132c0,0 -1.999,2.868 -8.187,2.868c-4.418,0 -8,3.582 -8,8s3.582,8 8,8c3.384,0 6.271,-2.105 7.44,-5.074c0.559,-1.201 1.035,-2.771 1.035,-4.667c0,-6.199 19.525,-11.197 19.525,-30.259l-19.813,21.132zm-8.187,14.868c-2.206,0 -4,-1.794 -4,-4s1.794,-4 4,-4s4,1.794 4,4s-1.794,4 -4,4z"/>
  <path id="svg_12" fill="#ffffff" d="m28.287376,33.031624c0,0 -1.999,2.868 -8.187,2.868c-4.418,0 -8,3.582 -8,8s3.582,8 8,8c3.384,0 6.271,-2.105 7.44,-5.074c0.559,-1.201 1.035,-2.771 1.035,-4.667c0,-6.199 19.525,-11.197 19.525,-30.259l-19.813,21.132zm-8.187,14.868c-2.206,0 -4,-1.794 -4,-4s1.794,-4 4,-4s4,1.794 4,4s-1.794,4 -4,4z"/>
  <circle id="svg_14" r="1.5" fill="#4F5D73" cy="33" cx="32"/>
 </g>
</svg>