<?xml version="1.0" encoding="UTF-8" standalone="no"?>
<svg
   xmlns:dc="http://purl.org/dc/elements/1.1/"
   xmlns:cc="http://creativecommons.org/ns#"
   xmlns:rdf="http://www.w3.org/1999/02/22-rdf-syntax-ns#"
   xmlns:svg="http://www.w3.org/2000/svg"
   xmlns="http://www.w3.org/2000/svg"
   version="1.1"
   id="svg3426"
   viewBox="0 0 56.25 56.25"
   height="15.875mm"
   width="15.875mm">
  <defs
     id="defs3428">
    <linearGradient
       id="linearGradient4586"
       spreadMethod="pad"
       gradientTransform="matrix(41.3095,17.8762,17.8762,-41.3095,387.2902,220.4591)"
       gradientUnits="userSpaceOnUse"
       y2="0"
       x2="1"
       y1="0"
       x1="0">
      <stop
         id="stop4588"
         offset="0"
         style="stop-opacity:1;stop-color:#5e268a" />
      <stop
         id="stop4590"
         offset="1"
         style="stop-opacity:1;stop-color:#b62d61" />
    </linearGradient>
  </defs>
  <metadata
     id="metadata3431">
    <rdf:RDF>
      <cc:Work
         rdf:about="">
        <dc:format>image/svg+xml</dc:format>
        <dc:type
           rdf:resource="http://purl.org/dc/dcmitype/StillImage" />
        <dc:title></dc:title>
      </cc:Work>
    </rdf:RDF>
  </metadata>
  <g
     transform="translate(-200.44647,-224.2372)"
     id="layer1">
    <g
       id="g4576"
       transform="matrix(1.25,0,0,-1.25,-294.55353,509.5372)">
      <g
         id="g4578">
        <g
           id="g4584">
          <path
             id="path4592"
             style="fill:url(#linearGradient4586);stroke:none"
             d="m 405.605,217.318 c 0,-3.577 1.411,-7.311 3.747,-10.704 l 0,0 14.66,20.946 c -1.763,0.444 -3.61,0.68 -5.512,0.68 l 0,0 c -9.89,0 -12.895,-5.829 -12.895,-10.922 m 33.027,-19.589 c 1.57,1.957 2.368,4.707 2.368,8.092 l 0,0 c -0.036,10.14 -6.779,18.699 -16.025,21.473 l 0,0 13.657,-29.565 z m -31.671,27.33 c 0.009,0.006 0.018,0.011 0.027,0.016 l 0,0 0,0.001 c -0.009,-0.006 -0.018,-0.011 -0.027,-0.017 m -0.043,-0.026 c 0.014,0.009 0.029,0.017 0.043,0.026 l 0,0 c -0.014,-0.008 -0.029,-0.017 -0.043,-0.026 m -0.025,-0.015 c 0.008,0.005 0.017,0.01 0.025,0.015 l 0,0 c -0.009,-0.005 -0.017,-0.01 -0.025,-0.015 M 396,205.74 c 0,-4.688 1.434,-9.042 3.887,-12.646 l 0,0 7.449,10.642 c -2.527,3.93 -4.055,8.411 -4.055,13.084 l 0,0 c 0,4.121 2.301,7.378 3.612,8.198 l 0,0 C 400.364,221.081 396,213.92 396,205.74 m 14.72,-0.948 c 4.847,-5.932 12.471,-10.42 19.903,-10.42 l 0,0 c 1.981,0 3.686,0.363 5.107,1.052 l 0,0 -11.513,28.656 -13.497,-19.288 z m -9.457,-13.514 c 4.128,-4.914 10.318,-8.038 17.237,-8.038 l 0,0 c 6.243,0 11.893,2.543 15.97,6.649 l 0,0 c -0.962,-0.18 -1.907,-0.278 -2.777,-0.278 l 0,0 c -8.531,0 -17.508,4.963 -23.034,12.237 l 0,0 -7.396,-10.57 z" />
        </g>
      </g>
    </g>
    <path
       id="path4572"
       style="fill:#231f20;fill-opacity:1;fill-rule:nonzero;stroke:none"
       d="m 249.94288,277.66625 2.0275,0 0,0.39125 -0.80125,0 0,2.3275 -0.42625,0 0,-2.3275 -0.8,0 0,-0.39125 z" />
    <path
       id="path4574"
       style="fill:#231f20;fill-opacity:1;fill-rule:nonzero;stroke:none"
       d="m 254.781,277.66625 0.375,0 0.33125,2.71875 -0.41875,0 -0.2325,-1.94125 -0.7975,1.6375 -0.355,0 -0.8,-1.6375 -0.2325,1.94125 -0.41875,0 0.33125,-2.71875 0.37125,0 0.9225,1.9375 0.92375,-1.9375 z" />
  </g>
</svg>
