<?xml version="1.0" encoding="UTF-8" standalone="no"?>
<svg
   xmlns:dc="http://purl.org/dc/elements/1.1/"
   xmlns:cc="http://creativecommons.org/ns#"
   xmlns:rdf="http://www.w3.org/1999/02/22-rdf-syntax-ns#"
   xmlns:svg="http://www.w3.org/2000/svg"
   xmlns="http://www.w3.org/2000/svg"
   version="1.1"
   id="svg4896"
   viewBox="0 0 161.47125 56.25"
   height="15.875mm"
   width="45.570774mm">
  <defs
     id="defs4898">
    <linearGradient
       x1="0"
       y1="0"
       x2="1"
       y2="0"
       gradientUnits="userSpaceOnUse"
       gradientTransform="matrix(41.3095,17.8762,17.8762,-41.3095,387.2902,220.4591)"
       spreadMethod="pad"
       id="linearGradient4586">
      <stop
         style="stop-opacity:1;stop-color:#5e268a"
         offset="0"
         id="stop4588" />
      <stop
         style="stop-opacity:1;stop-color:#b62d61"
         offset="1"
         id="stop4590" />
    </linearGradient>
    <clipPath
       clipPathUnits="userSpaceOnUse"
       id="clipPath4556">
      <path
         d="M 0,0 792,0 792,612 0,612 0,0 Z"
         id="path4558" />
    </clipPath>
  </defs>
  <metadata
     id="metadata4901">
    <rdf:RDF>
      <cc:Work
         rdf:about="">
        <dc:format>image/svg+xml</dc:format>
        <dc:type
           rdf:resource="http://purl.org/dc/dcmitype/StillImage" />
        <dc:title></dc:title>
      </cc:Work>
    </rdf:RDF>
  </metadata>
  <g
     transform="translate(-299.2644,-309.95149)"
     id="layer1">
    <g
       style="fill:#ffffff;fill-opacity:100"
       id="g4552"
       transform="matrix(1.25,0,0,-1.25,-195.7356,595.25149)">
      <g
         style="fill:#ffffff;fill-opacity:100"
         id="g4554"
         clip-path="url(#clipPath4556)">
        <path
           d="m 522.381,201.6242 c 0,0.265 0.061,0.512 0.184,0.739 0.123,0.226 0.293,0.406 0.51,0.536 0.217,0.131 0.452,0.196 0.704,0.196 0.252,0 0.486,-0.065 0.703,-0.196 0.218,-0.13 0.388,-0.31 0.511,-0.536 0.122,-0.227 0.184,-0.474 0.184,-0.739 0,-0.268 -0.063,-0.515 -0.187,-0.743 -0.125,-0.228 -0.295,-0.407 -0.511,-0.536 -0.216,-0.13 -0.449,-0.196 -0.7,-0.196 -0.253,0 -0.488,0.066 -0.704,0.198 -0.216,0.131 -0.386,0.31 -0.509,0.537 -0.123,0.227 -0.185,0.474 -0.185,0.74 m 0.24,0 c 0,-0.216 0.049,-0.418 0.147,-0.606 0.097,-0.188 0.236,-0.338 0.416,-0.452 0.18,-0.113 0.378,-0.17 0.595,-0.17 0.215,0 0.412,0.056 0.591,0.169 0.18,0.113 0.318,0.263 0.417,0.451 0.098,0.187 0.147,0.39 0.147,0.608 0,0.218 -0.049,0.421 -0.147,0.608 -0.099,0.186 -0.238,0.336 -0.418,0.448 -0.179,0.112 -0.376,0.169 -0.59,0.169 -0.209,0 -0.403,-0.054 -0.582,-0.162 -0.179,-0.107 -0.32,-0.256 -0.422,-0.445 -0.103,-0.189 -0.154,-0.395 -0.154,-0.618 m 0.874,-0.149 0,-0.664 -0.297,0 0,1.673 0.553,0 c 0.202,0 0.36,-0.046 0.472,-0.137 0.112,-0.092 0.168,-0.22 0.168,-0.382 0,-0.144 -0.07,-0.256 -0.211,-0.335 0.076,-0.042 0.13,-0.1 0.16,-0.173 0.03,-0.074 0.045,-0.164 0.045,-0.273 0,-0.108 0.002,-0.185 0.007,-0.229 0.005,-0.045 0.013,-0.082 0.027,-0.113 l 0,-0.031 -0.305,0 c -0.018,0.045 -0.026,0.172 -0.026,0.382 0,0.1 -0.022,0.171 -0.065,0.216 -0.043,0.043 -0.116,0.066 -0.217,0.066 l -0.311,0 z m 0,0.263 0.252,0 c 0.1,0 0.183,0.021 0.249,0.062 0.066,0.042 0.1,0.097 0.1,0.167 0,0.092 -0.024,0.157 -0.07,0.195 -0.047,0.04 -0.131,0.059 -0.253,0.061 l -0.278,0 0,-0.485 z"
           style="fill:#ffffff;fill-opacity:100;fill-rule:nonzero;stroke:none"
           id="path4560" />
        <path
           d="m 464.1741,188.923 c -1.486,-1.932 -3.863,-3.145 -6.637,-3.145 -4.829,0 -8.618,3.913 -8.618,8.742 0,4.854 3.789,8.766 8.618,8.766 2.724,0 5.077,-1.189 6.588,-3.071 l -2.031,-1.585 c -1.114,1.264 -2.699,2.13 -4.557,2.13 -3.392,0 -5.992,-2.798 -5.992,-6.24 0,-3.443 2.6,-6.216 5.992,-6.216 1.882,0 3.541,0.867 4.606,2.229 l 2.031,-1.61 z"
           style="fill:#ffffff;fill-opacity:100;fill-rule:nonzero;stroke:none"
           id="path4562" />
        <path
           d="m 478.6352,199.1754 c -1.04,0.991 -2.451,1.61 -4.011,1.61 -3.394,0 -6.018,-2.823 -6.018,-6.266 0,-3.442 2.624,-6.265 6.018,-6.265 2.773,0 5.002,1.634 5.126,4.185 l -4.78,0 0,2.254 7.8,0 c 0,-6.092 -3.268,-8.915 -8.146,-8.915 -4.854,0 -8.643,3.913 -8.643,8.741 0,4.854 3.789,8.767 8.643,8.767 2.352,0 4.457,-0.916 5.943,-2.402 l -1.932,-1.709 z"
           style="fill:#ffffff;fill-opacity:100;fill-rule:nonzero;stroke:none"
           id="path4564" />
      </g>
    </g>
    <g
       style="fill:#ffffff;fill-opacity:100"
       id="g4566"
       transform="matrix(1.25,0,0,-1.25,-195.7356,595.25149)">
      <path
         d="m 501.3179,203.088 2.352,0 2.081,-17.062 -2.625,0 -1.461,12.183 -5.002,-10.277 -2.229,0 -5.027,10.277 -1.461,-12.183 -2.625,0 2.08,17.062 2.328,0 5.795,-12.159 5.794,12.159 z"
         style="fill:#ffffff;fill-opacity:100;fill-rule:nonzero;stroke:none"
         id="path4568" />
      <path
         d="m 519.4193,190.285 -6.884,0 -1.635,-4.259 -2.798,0 6.439,17.062 2.847,0 6.439,-17.062 -2.773,0 -1.635,4.259 z m -5.993,2.353 5.101,0 -2.55,7.156 -2.551,-7.156 z"
         style="fill:#ffffff;fill-opacity:100;fill-rule:nonzero;stroke:none"
         id="path4570" />
      <path
         d="m 435.5763,185.474 1.622,0 0,-0.313 -0.641,0 0,-1.862 -0.341,0 0,1.862 -0.64,0 0,0.313 z"
         style="fill:#ffffff;fill-opacity:100;fill-rule:nonzero;stroke:none"
         id="path4572" />
      <path
         d="m 439.4468,185.474 0.3,0 0.265,-2.175 -0.335,0 -0.186,1.553 -0.638,-1.31 -0.284,0 -0.64,1.31 -0.186,-1.553 -0.335,0 0.265,2.175 0.297,0 0.738,-1.55 0.739,1.55 z"
         style="fill:#ffffff;fill-opacity:100;fill-rule:nonzero;stroke:none"
         id="path4574" />
    </g>
    <g
       style="fill:#ffffff;fill-opacity:100"
       id="g4576"
       transform="matrix(1.25,0,0,-1.25,-195.7356,595.25149)">
      <g
         style="fill:#ffffff;fill-opacity:100"
         id="g4578">
        <g
           style="fill:#ffffff;fill-opacity:100"
           id="g4584">
          <path
             d="m 405.605,217.318 c 0,-3.577 1.411,-7.311 3.747,-10.704 l 0,0 14.66,20.946 c -1.763,0.444 -3.61,0.68 -5.512,0.68 l 0,0 c -9.89,0 -12.895,-5.829 -12.895,-10.922 m 33.027,-19.589 c 1.57,1.957 2.368,4.707 2.368,8.092 l 0,0 c -0.036,10.14 -6.779,18.699 -16.025,21.473 l 0,0 13.657,-29.565 z m -31.671,27.33 c 0.009,0.006 0.018,0.011 0.027,0.016 l 0,0 0,0.001 c -0.009,-0.006 -0.018,-0.011 -0.027,-0.017 m -0.043,-0.026 c 0.014,0.009 0.029,0.017 0.043,0.026 l 0,0 c -0.014,-0.008 -0.029,-0.017 -0.043,-0.026 m -0.025,-0.015 c 0.008,0.005 0.017,0.01 0.025,0.015 l 0,0 c -0.009,-0.005 -0.017,-0.01 -0.025,-0.015 M 396,205.74 c 0,-4.688 1.434,-9.042 3.887,-12.646 l 0,0 7.449,10.642 c -2.527,3.93 -4.055,8.411 -4.055,13.084 l 0,0 c 0,4.121 2.301,7.378 3.612,8.198 l 0,0 C 400.364,221.081 396,213.92 396,205.74 m 14.72,-0.948 c 4.847,-5.932 12.471,-10.42 19.903,-10.42 l 0,0 c 1.981,0 3.686,0.363 5.107,1.052 l 0,0 -11.513,28.656 -13.497,-19.288 z m -9.457,-13.514 c 4.128,-4.914 10.318,-8.038 17.237,-8.038 l 0,0 c 6.243,0 11.893,2.543 15.97,6.649 l 0,0 c -0.962,-0.18 -1.907,-0.278 -2.777,-0.278 l 0,0 c -8.531,0 -17.508,4.963 -23.034,12.237 l 0,0 -7.396,-10.57 z"
             style="fill:#ffffff;fill-opacity:100;stroke:none"
             id="path4592" />
        </g>
      </g>
    </g>
  </g>
</svg>
